<svg width="159" height="181" viewBox="0 0 159 181" fill="none" xmlns="http://www.w3.org/2000/svg">
<mask id="mask0_1_264" style="mask-type:alpha" maskUnits="userSpaceOnUse" x="0" y="0" width="159" height="181">
<path d="M72.0181 0.285248C69.5717 0.43624 67.1384 0.807657 64.7602 1.41272C62.5887 1.96489 60.438 2.60853 58.2731 3.19156C38.1091 8.43107 22.7105 20.0993 11.7758 37.8843C1.8989 53.9445 -1.45571 71.3504 0.560799 89.9158C2.31232 106.039 9.54711 119.715 19.8396 131.898C28.9931 142.733 39.7804 151.702 51.6078 159.491C63.8762 167.57 76.9406 173.89 90.9506 178.268C94.4096 179.348 97.9633 180.003 101.512 180.68C102.271 180.825 103.097 180.964 103.62 180.187C104.05 179.55 103.881 178.892 103.595 178.285C103.288 177.636 102.857 177.053 102.399 176.499C100.046 173.657 98.3272 170.45 96.8802 167.076C95.176 163.098 95.7873 158.712 101.409 157.248C116.071 153.429 128.22 145.324 138.157 133.991C152.457 117.681 159.14 98.4925 158.008 76.8655C156.807 53.949 147.525 34.6419 130.201 19.546C115.076 6.36789 97.4993 0.102295 77.8939 0.102295C75.9543 0.102295 73.9972 0.164014 72.0181 0.285248Z" fill="white"/>
</mask>
<g mask="url(#mask0_1_264)">
<path d="M163.627 -5.4082L163.624 75.5596L140.975 75.3884L140.744 75.3872C135.388 75.3872 130.13 76.8399 125.525 79.5952L119.998 82.9049L114.238 76.4001C113.774 75.8788 113.255 75.4049 112.691 74.9905C110.559 73.4222 107.946 72.7818 105.335 73.1852C102.723 73.5886 100.422 74.9872 98.859 77.1242L95.246 82.0617L90.3707 64.2183C89.5153 61.0827 87.0216 58.6801 83.8572 57.9494C81.568 57.4248 79.2107 57.8193 77.2184 59.0702C75.2261 60.3201 73.8407 62.273 73.314 64.5677L68.9171 83.7359L66.2101 71.5618C65.4305 68.0647 62.8203 65.2521 59.3997 64.2238C56.8653 63.46 54.1902 63.7311 51.8636 64.9876C49.536 66.2429 47.835 68.3303 47.0741 70.8685L43.8482 81.633L41.7074 75.1426C40.3627 71.0724 36.5881 68.3391 32.3121 68.3391H26.3879C23.3522 68.3391 20.8904 70.8057 20.8904 73.8498C20.8904 76.8939 23.3522 79.3604 26.3879 79.3604H31.5171L37.7866 98.3633C38.9301 101.821 42.6695 103.708 46.1242 102.561C48.1638 101.885 49.7504 100.247 50.3672 98.1859L56.3936 78.0786L62.4112 105.136C62.795 106.86 63.8241 108.331 65.3129 109.279C66.3827 109.961 67.5987 110.311 68.8379 110.311C69.3195 110.311 69.8066 110.259 70.2881 110.151C72.7489 109.6 74.7082 107.652 75.2799 105.179L82.0727 75.5702L85.8452 89.3733C86.4642 91.6447 87.9309 93.5382 89.9716 94.7053C92.0123 95.8703 94.384 96.169 96.6501 95.5496C98.5566 95.0272 100.251 93.8578 101.421 92.2597L106.921 84.7421L111.776 90.223C115.28 94.1741 121.105 95.0757 125.634 92.3666L131.162 89.058C134.102 87.2979 137.41 86.3854 140.89 86.4096L163.624 86.5809L163.627 186.304H-5.49771V-5.4082H163.627Z" fill="#EBEBEB"/>
</g>
</svg>
