<svg width="212" height="78" viewBox="0 0 212 78" fill="none" xmlns="http://www.w3.org/2000/svg">
<path d="M0 15C0 6.71573 6.71573 0 15 0H197C205.284 0 212 6.71573 212 15V63C212 71.2843 205.284 78 197 78H0V15Z" fill="white"/>
<path d="M16.332 35V22.4H17.844V27.962H24.378V22.4H25.89V35H24.378V29.204H17.844V35H16.332ZM32.4728 35.216C31.6208 35.216 30.8648 35.024 30.2048 34.64C29.5448 34.244 29.0228 33.698 28.6388 33.002C28.2668 32.306 28.0808 31.484 28.0808 30.536C28.0808 29.6 28.2668 28.784 28.6388 28.088C29.0108 27.38 29.5268 26.834 30.1868 26.45C30.8588 26.054 31.6328 25.856 32.5088 25.856C33.3728 25.856 34.1168 26.054 34.7408 26.45C35.3768 26.834 35.8628 27.344 36.1988 27.98C36.5348 28.616 36.7028 29.3 36.7028 30.032C36.7028 30.164 36.6968 30.296 36.6848 30.428C36.6848 30.56 36.6848 30.71 36.6848 30.878H29.5748C29.6108 31.562 29.7668 32.132 30.0428 32.588C30.3308 33.032 30.6848 33.368 31.1048 33.596C31.5368 33.824 31.9928 33.938 32.4728 33.938C33.0968 33.938 33.6188 33.794 34.0388 33.506C34.4588 33.218 34.7648 32.828 34.9568 32.336H36.4508C36.2108 33.164 35.7488 33.854 35.0648 34.406C34.3928 34.946 33.5288 35.216 32.4728 35.216ZM32.4728 27.134C31.7528 27.134 31.1108 27.356 30.5468 27.8C29.9948 28.232 29.6768 28.868 29.5928 29.708H35.2088C35.1728 28.904 34.8968 28.274 34.3808 27.818C33.8648 27.362 33.2288 27.134 32.4728 27.134ZM39.3273 38.96L41.5413 34.136H41.0193L37.4733 26.072H39.1113L42.0633 33.02L45.1953 26.072H46.7613L40.9113 38.96H39.3273ZM46.0614 37.142L47.1054 33.164H48.6714L47.1054 37.142H46.0614ZM55.3203 35V22.4H56.8323L63.5463 32.498V22.4H65.0583V35H63.5463L56.8323 24.902V35H55.3203ZM68.5584 24.092C68.2584 24.092 68.0064 23.996 67.8024 23.804C67.6104 23.6 67.5144 23.348 67.5144 23.048C67.5144 22.76 67.6104 22.52 67.8024 22.328C68.0064 22.136 68.2584 22.04 68.5584 22.04C68.8464 22.04 69.0924 22.136 69.2964 22.328C69.5004 22.52 69.6024 22.76 69.6024 23.048C69.6024 23.348 69.5004 23.6 69.2964 23.804C69.0924 23.996 68.8464 24.092 68.5584 24.092ZM67.8024 35V26.072H69.3144V35H67.8024ZM76.0511 35.216C75.1991 35.216 74.4311 35.024 73.7471 34.64C73.0751 34.244 72.5411 33.698 72.1451 33.002C71.7611 32.294 71.5691 31.472 71.5691 30.536C71.5691 29.6 71.7611 28.784 72.1451 28.088C72.5411 27.38 73.0751 26.834 73.7471 26.45C74.4311 26.054 75.1991 25.856 76.0511 25.856C77.1071 25.856 77.9951 26.132 78.7151 26.684C79.4471 27.236 79.9091 27.974 80.1011 28.898H78.5531C78.4331 28.346 78.1391 27.92 77.6711 27.62C77.2031 27.308 76.6571 27.152 76.0331 27.152C75.5291 27.152 75.0551 27.278 74.6111 27.53C74.1671 27.782 73.8071 28.16 73.5311 28.664C73.2551 29.168 73.1171 29.792 73.1171 30.536C73.1171 31.28 73.2551 31.904 73.5311 32.408C73.8071 32.912 74.1671 33.296 74.6111 33.56C75.0551 33.812 75.5291 33.938 76.0331 33.938C76.6571 33.938 77.2031 33.788 77.6711 33.488C78.1391 33.176 78.4331 32.738 78.5531 32.174H80.1011C79.9211 33.074 79.4651 33.806 78.7331 34.37C78.0011 34.934 77.1071 35.216 76.0511 35.216ZM86.2267 35.216C85.3747 35.216 84.6187 35.024 83.9587 34.64C83.2987 34.244 82.7767 33.698 82.3927 33.002C82.0207 32.306 81.8347 31.484 81.8347 30.536C81.8347 29.6 82.0207 28.784 82.3927 28.088C82.7647 27.38 83.2807 26.834 83.9407 26.45C84.6127 26.054 85.3867 25.856 86.2627 25.856C87.1267 25.856 87.8707 26.054 88.4947 26.45C89.1307 26.834 89.6167 27.344 89.9527 27.98C90.2887 28.616 90.4567 29.3 90.4567 30.032C90.4567 30.164 90.4507 30.296 90.4387 30.428C90.4387 30.56 90.4387 30.71 90.4387 30.878H83.3287C83.3647 31.562 83.5207 32.132 83.7967 32.588C84.0847 33.032 84.4387 33.368 84.8587 33.596C85.2907 33.824 85.7467 33.938 86.2267 33.938C86.8507 33.938 87.3727 33.794 87.7927 33.506C88.2127 33.218 88.5187 32.828 88.7107 32.336H90.2047C89.9647 33.164 89.5027 33.854 88.8187 34.406C88.1467 34.946 87.2827 35.216 86.2267 35.216ZM86.2267 27.134C85.5067 27.134 84.8647 27.356 84.3007 27.8C83.7487 28.232 83.4307 28.868 83.3467 29.708H88.9627C88.9267 28.904 88.6507 28.274 88.1347 27.818C87.6187 27.362 86.9827 27.134 86.2267 27.134ZM100.752 35C99.9364 35 99.2944 34.802 98.8264 34.406C98.3584 34.01 98.1244 33.296 98.1244 32.264V27.35H96.5764V26.072H98.1244L98.3224 23.93H99.6364V26.072H102.264V27.35H99.6364V32.264C99.6364 32.828 99.7504 33.212 99.9784 33.416C100.206 33.608 100.608 33.704 101.184 33.704H102.12V35H100.752ZM108.007 35.216C107.167 35.216 106.411 35.024 105.739 34.64C105.067 34.256 104.533 33.716 104.137 33.02C103.753 32.312 103.561 31.484 103.561 30.536C103.561 29.588 103.759 28.766 104.155 28.07C104.551 27.362 105.085 26.816 105.757 26.432C106.441 26.048 107.203 25.856 108.043 25.856C108.883 25.856 109.639 26.048 110.311 26.432C110.983 26.816 111.511 27.362 111.895 28.07C112.291 28.766 112.489 29.588 112.489 30.536C112.489 31.484 112.291 32.312 111.895 33.02C111.499 33.716 110.959 34.256 110.275 34.64C109.603 35.024 108.847 35.216 108.007 35.216ZM108.007 33.92C108.523 33.92 109.003 33.794 109.447 33.542C109.891 33.29 110.251 32.912 110.527 32.408C110.803 31.904 110.941 31.28 110.941 30.536C110.941 29.792 110.803 29.168 110.527 28.664C110.263 28.16 109.909 27.782 109.465 27.53C109.021 27.278 108.547 27.152 108.043 27.152C107.527 27.152 107.047 27.278 106.603 27.53C106.159 27.782 105.799 28.16 105.523 28.664C105.247 29.168 105.109 29.792 105.109 30.536C105.109 31.28 105.247 31.904 105.523 32.408C105.799 32.912 106.153 33.29 106.585 33.542C107.029 33.794 107.503 33.92 108.007 33.92ZM119.355 35V26.072H120.723L120.831 27.368C121.119 26.888 121.503 26.516 121.983 26.252C122.463 25.988 123.003 25.856 123.603 25.856C124.311 25.856 124.917 26 125.421 26.288C125.937 26.576 126.333 27.014 126.609 27.602C126.921 27.062 127.347 26.636 127.887 26.324C128.439 26.012 129.033 25.856 129.669 25.856C130.737 25.856 131.589 26.18 132.225 26.828C132.861 27.464 133.179 28.448 133.179 29.78V35H131.685V29.942C131.685 29.018 131.499 28.322 131.127 27.854C130.755 27.386 130.221 27.152 129.525 27.152C128.805 27.152 128.205 27.434 127.725 27.998C127.257 28.55 127.023 29.342 127.023 30.374V35H125.511V29.942C125.511 29.018 125.325 28.322 124.953 27.854C124.581 27.386 124.047 27.152 123.351 27.152C122.643 27.152 122.049 27.434 121.569 27.998C121.101 28.55 120.867 29.342 120.867 30.374V35H119.355ZM139.471 35.216C138.619 35.216 137.863 35.024 137.203 34.64C136.543 34.244 136.021 33.698 135.637 33.002C135.265 32.306 135.079 31.484 135.079 30.536C135.079 29.6 135.265 28.784 135.637 28.088C136.009 27.38 136.525 26.834 137.185 26.45C137.857 26.054 138.631 25.856 139.507 25.856C140.371 25.856 141.115 26.054 141.739 26.45C142.375 26.834 142.861 27.344 143.197 27.98C143.533 28.616 143.701 29.3 143.701 30.032C143.701 30.164 143.695 30.296 143.683 30.428C143.683 30.56 143.683 30.71 143.683 30.878H136.573C136.609 31.562 136.765 32.132 137.041 32.588C137.329 33.032 137.683 33.368 138.103 33.596C138.535 33.824 138.991 33.938 139.471 33.938C140.095 33.938 140.617 33.794 141.037 33.506C141.457 33.218 141.763 32.828 141.955 32.336H143.449C143.209 33.164 142.747 33.854 142.063 34.406C141.391 34.946 140.527 35.216 139.471 35.216ZM139.471 27.134C138.751 27.134 138.109 27.356 137.545 27.8C136.993 28.232 136.675 28.868 136.591 29.708H142.207C142.171 28.904 141.895 28.274 141.379 27.818C140.863 27.362 140.227 27.134 139.471 27.134ZM149.719 35.216C148.867 35.216 148.111 35.024 147.451 34.64C146.791 34.244 146.269 33.698 145.885 33.002C145.513 32.306 145.327 31.484 145.327 30.536C145.327 29.6 145.513 28.784 145.885 28.088C146.257 27.38 146.773 26.834 147.433 26.45C148.105 26.054 148.879 25.856 149.755 25.856C150.619 25.856 151.363 26.054 151.987 26.45C152.623 26.834 153.109 27.344 153.445 27.98C153.781 28.616 153.949 29.3 153.949 30.032C153.949 30.164 153.943 30.296 153.931 30.428C153.931 30.56 153.931 30.71 153.931 30.878H146.821C146.857 31.562 147.013 32.132 147.289 32.588C147.577 33.032 147.931 33.368 148.351 33.596C148.783 33.824 149.239 33.938 149.719 33.938C150.343 33.938 150.865 33.794 151.285 33.506C151.705 33.218 152.011 32.828 152.203 32.336H153.697C153.457 33.164 152.995 33.854 152.311 34.406C151.639 34.946 150.775 35.216 149.719 35.216ZM149.719 27.134C148.999 27.134 148.357 27.356 147.793 27.8C147.241 28.232 146.923 28.868 146.839 29.708H152.455C152.419 28.904 152.143 28.274 151.627 27.818C151.111 27.362 150.475 27.134 149.719 27.134ZM159.182 35C158.366 35 157.724 34.802 157.256 34.406C156.788 34.01 156.554 33.296 156.554 32.264V27.35H155.006V26.072H156.554L156.752 23.93H158.066V26.072H160.694V27.35H158.066V32.264C158.066 32.828 158.18 33.212 158.408 33.416C158.636 33.608 159.038 33.704 159.614 33.704H160.55V35H159.182ZM168.351 38.96L170.565 34.136H170.043L166.497 26.072H168.135L171.087 33.02L174.219 26.072H175.785L169.935 38.96H168.351ZM180.605 35.216C179.765 35.216 179.009 35.024 178.337 34.64C177.665 34.256 177.131 33.716 176.735 33.02C176.351 32.312 176.159 31.484 176.159 30.536C176.159 29.588 176.357 28.766 176.753 28.07C177.149 27.362 177.683 26.816 178.355 26.432C179.039 26.048 179.801 25.856 180.641 25.856C181.481 25.856 182.237 26.048 182.909 26.432C183.581 26.816 184.109 27.362 184.493 28.07C184.889 28.766 185.087 29.588 185.087 30.536C185.087 31.484 184.889 32.312 184.493 33.02C184.097 33.716 183.557 34.256 182.873 34.64C182.201 35.024 181.445 35.216 180.605 35.216ZM180.605 33.92C181.121 33.92 181.601 33.794 182.045 33.542C182.489 33.29 182.849 32.912 183.125 32.408C183.401 31.904 183.539 31.28 183.539 30.536C183.539 29.792 183.401 29.168 183.125 28.664C182.861 28.16 182.507 27.782 182.063 27.53C181.619 27.278 181.145 27.152 180.641 27.152C180.125 27.152 179.645 27.278 179.201 27.53C178.757 27.782 178.397 28.16 178.121 28.664C177.845 29.168 177.707 29.792 177.707 30.536C177.707 31.28 177.845 31.904 178.121 32.408C178.397 32.912 178.751 33.29 179.183 33.542C179.627 33.794 180.101 33.92 180.605 33.92ZM190.447 35.216C189.391 35.216 188.551 34.898 187.927 34.262C187.303 33.614 186.991 32.624 186.991 31.292V26.072H188.503V31.13C188.503 32.99 189.265 33.92 190.789 33.92C191.569 33.92 192.211 33.644 192.715 33.092C193.231 32.528 193.489 31.73 193.489 30.698V26.072H195.001V35H193.633L193.525 33.398C193.249 33.962 192.835 34.406 192.283 34.73C191.743 35.054 191.131 35.216 190.447 35.216Z" fill="black"/>
<path d="M18.66 58.144C18.132 58.144 17.68 58.04 17.304 57.832C16.928 57.624 16.628 57.348 16.404 57.004C16.188 56.652 16.056 56.264 16.008 55.84H16.944C17.024 56.296 17.216 56.648 17.52 56.896C17.824 57.144 18.208 57.268 18.672 57.268C19.312 57.268 19.844 56.972 20.268 56.38C20.692 55.78 20.92 54.848 20.952 53.584C20.76 53.96 20.452 54.288 20.028 54.568C19.612 54.84 19.108 54.976 18.516 54.976C18.044 54.976 17.596 54.864 17.172 54.64C16.748 54.416 16.404 54.104 16.14 53.704C15.876 53.296 15.744 52.82 15.744 52.276C15.744 51.804 15.86 51.352 16.092 50.92C16.332 50.488 16.668 50.136 17.1 49.864C17.532 49.592 18.048 49.456 18.648 49.456C19.256 49.456 19.768 49.572 20.184 49.804C20.6 50.028 20.932 50.332 21.18 50.716C21.436 51.1 21.62 51.532 21.732 52.012C21.852 52.484 21.912 52.968 21.912 53.464C21.912 54.392 21.784 55.208 21.528 55.912C21.272 56.608 20.9 57.156 20.412 57.556C19.932 57.948 19.348 58.144 18.66 58.144ZM18.72 54.1C19.096 54.1 19.432 54.016 19.728 53.848C20.024 53.672 20.26 53.44 20.436 53.152C20.612 52.864 20.7 52.552 20.7 52.216C20.7 51.856 20.612 51.536 20.436 51.256C20.26 50.968 20.024 50.744 19.728 50.584C19.432 50.424 19.096 50.344 18.72 50.344C18.344 50.344 18.008 50.424 17.712 50.584C17.416 50.744 17.184 50.968 17.016 51.256C16.848 51.536 16.764 51.86 16.764 52.228C16.764 52.796 16.948 53.252 17.316 53.596C17.692 53.932 18.16 54.1 18.72 54.1ZM23.7346 58.06C23.5346 58.06 23.3666 57.996 23.2306 57.868C23.1026 57.732 23.0386 57.568 23.0386 57.376C23.0386 57.184 23.1026 57.024 23.2306 56.896C23.3666 56.76 23.5346 56.692 23.7346 56.692C23.9266 56.692 24.0866 56.76 24.2146 56.896C24.3506 57.024 24.4186 57.184 24.4186 57.376C24.4186 57.568 24.3506 57.732 24.2146 57.868C24.0866 57.996 23.9266 58.06 23.7346 58.06ZM23.7346 53.272C23.5346 53.272 23.3666 53.208 23.2306 53.08C23.1026 52.944 23.0386 52.78 23.0386 52.588C23.0386 52.396 23.1026 52.236 23.2306 52.108C23.3666 51.972 23.5346 51.904 23.7346 51.904C23.9266 51.904 24.0866 51.972 24.2146 52.108C24.3506 52.236 24.4186 52.396 24.4186 52.588C24.4186 52.78 24.3506 52.944 24.2146 53.08C24.0866 53.208 23.9266 53.272 23.7346 53.272ZM29.1132 58.144C28.3692 58.144 27.7252 57.964 27.1812 57.604C26.6452 57.236 26.2332 56.728 25.9452 56.08C25.6572 55.424 25.5132 54.664 25.5132 53.8C25.5132 52.936 25.6572 52.18 25.9452 51.532C26.2332 50.876 26.6452 50.368 27.1812 50.008C27.7252 49.64 28.3692 49.456 29.1132 49.456C29.8572 49.456 30.4972 49.64 31.0332 50.008C31.5692 50.368 31.9812 50.876 32.2692 51.532C32.5572 52.18 32.7012 52.936 32.7012 53.8C32.7012 54.664 32.5572 55.424 32.2692 56.08C31.9812 56.728 31.5692 57.236 31.0332 57.604C30.4972 57.964 29.8572 58.144 29.1132 58.144ZM29.1132 57.256C29.6012 57.256 30.0372 57.12 30.4212 56.848C30.8132 56.568 31.1172 56.172 31.3332 55.66C31.5572 55.14 31.6692 54.52 31.6692 53.8C31.6692 53.08 31.5572 52.464 31.3332 51.952C31.1172 51.44 30.8132 51.048 30.4212 50.776C30.0372 50.496 29.6012 50.356 29.1132 50.356C28.6172 50.356 28.1772 50.496 27.7932 50.776C27.4092 51.048 27.1052 51.44 26.8812 51.952C26.6572 52.464 26.5452 53.08 26.5452 53.8C26.5452 54.52 26.6572 55.14 26.8812 55.66C27.1052 56.172 27.4092 56.568 27.7932 56.848C28.1772 57.12 28.6172 57.256 29.1132 57.256ZM37.0135 58.144C36.4375 58.144 35.9375 58.04 35.5135 57.832C35.0895 57.624 34.7495 57.34 34.4935 56.98C34.2455 56.612 34.0935 56.196 34.0375 55.732H35.0215C35.1175 56.196 35.3415 56.572 35.6935 56.86C36.0455 57.14 36.4895 57.28 37.0255 57.28C37.4255 57.28 37.7695 57.188 38.0575 57.004C38.3455 56.812 38.5655 56.556 38.7175 56.236C38.8775 55.916 38.9575 55.56 38.9575 55.168C38.9575 54.544 38.7815 54.04 38.4295 53.656C38.0775 53.272 37.6215 53.08 37.0615 53.08C36.5975 53.08 36.2015 53.184 35.8735 53.392C35.5455 53.6 35.3055 53.872 35.1535 54.208H34.1935L34.9135 49.6H39.3175V50.476H35.6935L35.2015 53.032C35.3935 52.8 35.6575 52.608 35.9935 52.456C36.3375 52.304 36.7295 52.228 37.1695 52.228C37.7215 52.228 38.2015 52.356 38.6095 52.612C39.0255 52.868 39.3495 53.216 39.5815 53.656C39.8135 54.096 39.9295 54.596 39.9295 55.156C39.9295 55.692 39.8135 56.188 39.5815 56.644C39.3575 57.1 39.0255 57.464 38.5855 57.736C38.1535 58.008 37.6295 58.144 37.0135 58.144ZM41.4452 60.64V52.048H42.3572L42.4532 53.032C42.6452 52.744 42.9172 52.484 43.2692 52.252C43.6292 52.02 44.0852 51.904 44.6372 51.904C45.2292 51.904 45.7452 52.04 46.1852 52.312C46.6252 52.584 46.9652 52.956 47.2052 53.428C47.4532 53.9 47.5772 54.436 47.5772 55.036C47.5772 55.636 47.4532 56.172 47.2052 56.644C46.9652 57.108 46.6212 57.476 46.1732 57.748C45.7332 58.012 45.2172 58.144 44.6252 58.144C44.1372 58.144 43.7012 58.044 43.3172 57.844C42.9412 57.644 42.6532 57.364 42.4532 57.004V60.64H41.4452ZM44.5172 57.268C44.9172 57.268 45.2692 57.176 45.5732 56.992C45.8772 56.8 46.1172 56.536 46.2932 56.2C46.4692 55.864 46.5572 55.472 46.5572 55.024C46.5572 54.576 46.4692 54.184 46.2932 53.848C46.1172 53.512 45.8772 53.252 45.5732 53.068C45.2692 52.876 44.9172 52.78 44.5172 52.78C44.1172 52.78 43.7652 52.876 43.4612 53.068C43.1572 53.252 42.9172 53.512 42.7412 53.848C42.5652 54.184 42.4772 54.576 42.4772 55.024C42.4772 55.472 42.5652 55.864 42.7412 56.2C42.9172 56.536 43.1572 56.8 43.4612 56.992C43.7652 57.176 44.1172 57.268 44.5172 57.268ZM48.9803 58V52.048H49.8923L49.9643 52.912C50.1563 52.592 50.4123 52.344 50.7323 52.168C51.0523 51.992 51.4123 51.904 51.8123 51.904C52.2843 51.904 52.6883 52 53.0243 52.192C53.3683 52.384 53.6323 52.676 53.8163 53.068C54.0243 52.708 54.3083 52.424 54.6683 52.216C55.0363 52.008 55.4323 51.904 55.8563 51.904C56.5683 51.904 57.1363 52.12 57.5603 52.552C57.9843 52.976 58.1963 53.632 58.1963 54.52V58H57.2003V54.628C57.2003 54.012 57.0763 53.548 56.8283 53.236C56.5803 52.924 56.2243 52.768 55.7603 52.768C55.2803 52.768 54.8803 52.956 54.5603 53.332C54.2483 53.7 54.0923 54.228 54.0923 54.916V58H53.0843V54.628C53.0843 54.012 52.9603 53.548 52.7123 53.236C52.4643 52.924 52.1083 52.768 51.6443 52.768C51.1723 52.768 50.7763 52.956 50.4563 53.332C50.1443 53.7 49.9883 54.228 49.9883 54.916V58H48.9803Z" fill="black"/>
</svg>
