<svg width="379" height="114" viewBox="0 0 379 114" fill="none" xmlns="http://www.w3.org/2000/svg">
<path d="M0 20C0 8.9543 8.95431 0 20 0H359C370.046 0 379 8.95431 379 20V114H20C8.9543 114 0 105.046 0 94V20Z" fill="white"/>
<path d="M16.332 35V22.4H17.844V27.962H24.378V22.4H25.89V35H24.378V29.204H17.844V35H16.332ZM32.4728 35.216C31.6208 35.216 30.8648 35.024 30.2048 34.64C29.5448 34.244 29.0228 33.698 28.6388 33.002C28.2668 32.306 28.0808 31.484 28.0808 30.536C28.0808 29.6 28.2668 28.784 28.6388 28.088C29.0108 27.38 29.5268 26.834 30.1868 26.45C30.8588 26.054 31.6328 25.856 32.5088 25.856C33.3728 25.856 34.1168 26.054 34.7408 26.45C35.3768 26.834 35.8628 27.344 36.1988 27.98C36.5348 28.616 36.7028 29.3 36.7028 30.032C36.7028 30.164 36.6968 30.296 36.6848 30.428C36.6848 30.56 36.6848 30.71 36.6848 30.878H29.5748C29.6108 31.562 29.7668 32.132 30.0428 32.588C30.3308 33.032 30.6848 33.368 31.1048 33.596C31.5368 33.824 31.9928 33.938 32.4728 33.938C33.0968 33.938 33.6188 33.794 34.0388 33.506C34.4588 33.218 34.7648 32.828 34.9568 32.336H36.4508C36.2108 33.164 35.7488 33.854 35.0648 34.406C34.3928 34.946 33.5288 35.216 32.4728 35.216ZM32.4728 27.134C31.7528 27.134 31.1108 27.356 30.5468 27.8C29.9948 28.232 29.6768 28.868 29.5928 29.708H35.2088C35.1728 28.904 34.8968 28.274 34.3808 27.818C33.8648 27.362 33.2288 27.134 32.4728 27.134ZM39.3273 38.96L41.5413 34.136H41.0193L37.4733 26.072H39.1113L42.0633 33.02L45.1953 26.072H46.7613L40.9113 38.96H39.3273ZM53.2109 35V22.4H57.6389C58.5269 22.4 59.2589 22.544 59.8349 22.832C60.4229 23.108 60.8609 23.492 61.1489 23.984C61.4369 24.464 61.5809 25.004 61.5809 25.604C61.5809 26.42 61.3589 27.062 60.9149 27.53C60.4829 27.998 59.9609 28.322 59.3489 28.502C59.8169 28.586 60.2429 28.772 60.6269 29.06C61.0109 29.348 61.3109 29.708 61.5269 30.14C61.7549 30.572 61.8689 31.046 61.8689 31.562C61.8689 32.198 61.7129 32.78 61.4009 33.308C61.0889 33.824 60.6269 34.238 60.0149 34.55C59.4029 34.85 58.6589 35 57.7829 35H53.2109ZM54.7229 27.908H57.5309C58.3349 27.908 58.9529 27.722 59.3849 27.35C59.8169 26.966 60.0329 26.438 60.0329 25.766C60.0329 25.13 59.8169 24.62 59.3849 24.236C58.9649 23.852 58.3289 23.66 57.4769 23.66H54.7229V27.908ZM54.7229 33.74H57.6209C58.4849 33.74 59.1509 33.542 59.6189 33.146C60.0869 32.738 60.3209 32.174 60.3209 31.454C60.3209 30.746 60.0749 30.182 59.5829 29.762C59.0909 29.33 58.4249 29.114 57.5849 29.114H54.7229V33.74ZM68.017 35.216C67.177 35.216 66.421 35.024 65.749 34.64C65.077 34.256 64.543 33.716 64.147 33.02C63.763 32.312 63.571 31.484 63.571 30.536C63.571 29.588 63.769 28.766 64.165 28.07C64.561 27.362 65.095 26.816 65.767 26.432C66.451 26.048 67.213 25.856 68.053 25.856C68.893 25.856 69.649 26.048 70.321 26.432C70.993 26.816 71.521 27.362 71.905 28.07C72.301 28.766 72.499 29.588 72.499 30.536C72.499 31.484 72.301 32.312 71.905 33.02C71.509 33.716 70.969 34.256 70.285 34.64C69.613 35.024 68.857 35.216 68.017 35.216ZM68.017 33.92C68.533 33.92 69.013 33.794 69.457 33.542C69.901 33.29 70.261 32.912 70.537 32.408C70.813 31.904 70.951 31.28 70.951 30.536C70.951 29.792 70.813 29.168 70.537 28.664C70.273 28.16 69.919 27.782 69.475 27.53C69.031 27.278 68.557 27.152 68.053 27.152C67.537 27.152 67.057 27.278 66.613 27.53C66.169 27.782 65.809 28.16 65.533 28.664C65.257 29.168 65.119 29.792 65.119 30.536C65.119 31.28 65.257 31.904 65.533 32.408C65.809 32.912 66.163 33.29 66.595 33.542C67.039 33.794 67.513 33.92 68.017 33.92ZM78.0214 35.216C76.9534 35.216 76.0654 34.946 75.3574 34.406C74.6494 33.866 74.2354 33.134 74.1154 32.21H75.6634C75.7594 32.678 76.0054 33.086 76.4014 33.434C76.8094 33.77 77.3554 33.938 78.0394 33.938C78.6754 33.938 79.1434 33.806 79.4434 33.542C79.7434 33.266 79.8934 32.942 79.8934 32.57C79.8934 32.03 79.6954 31.67 79.2994 31.49C78.9154 31.31 78.3694 31.148 77.6614 31.004C77.1814 30.908 76.7014 30.77 76.2214 30.59C75.7414 30.41 75.3394 30.158 75.0154 29.834C74.6914 29.498 74.5294 29.06 74.5294 28.52C74.5294 27.74 74.8174 27.104 75.3934 26.612C75.9814 26.108 76.7734 25.856 77.7694 25.856C78.7174 25.856 79.4914 26.096 80.0914 26.576C80.7034 27.044 81.0574 27.716 81.1534 28.592H79.6594C79.5994 28.136 79.4014 27.782 79.0654 27.53C78.7414 27.266 78.3034 27.134 77.7514 27.134C77.2114 27.134 76.7914 27.248 76.4914 27.476C76.2034 27.704 76.0594 28.004 76.0594 28.376C76.0594 28.736 76.2454 29.018 76.6174 29.222C77.0014 29.426 77.5174 29.6 78.1654 29.744C78.7174 29.864 79.2394 30.014 79.7314 30.194C80.2354 30.362 80.6434 30.62 80.9554 30.968C81.2794 31.304 81.4414 31.796 81.4414 32.444C81.4534 33.248 81.1474 33.914 80.5234 34.442C79.9114 34.958 79.0774 35.216 78.0214 35.216ZM87.0214 35.216C85.9534 35.216 85.0654 34.946 84.3574 34.406C83.6494 33.866 83.2354 33.134 83.1154 32.21H84.6634C84.7594 32.678 85.0054 33.086 85.4014 33.434C85.8094 33.77 86.3554 33.938 87.0394 33.938C87.6754 33.938 88.1434 33.806 88.4434 33.542C88.7434 33.266 88.8934 32.942 88.8934 32.57C88.8934 32.03 88.6954 31.67 88.2994 31.49C87.9154 31.31 87.3694 31.148 86.6614 31.004C86.1814 30.908 85.7014 30.77 85.2214 30.59C84.7414 30.41 84.3394 30.158 84.0154 29.834C83.6914 29.498 83.5294 29.06 83.5294 28.52C83.5294 27.74 83.8174 27.104 84.3934 26.612C84.9814 26.108 85.7734 25.856 86.7694 25.856C87.7174 25.856 88.4914 26.096 89.0914 26.576C89.7034 27.044 90.0574 27.716 90.1534 28.592H88.6594C88.5994 28.136 88.4014 27.782 88.0654 27.53C87.7414 27.266 87.3034 27.134 86.7514 27.134C86.2114 27.134 85.7914 27.248 85.4914 27.476C85.2034 27.704 85.0594 28.004 85.0594 28.376C85.0594 28.736 85.2454 29.018 85.6174 29.222C86.0014 29.426 86.5174 29.6 87.1654 29.744C87.7174 29.864 88.2394 30.014 88.7314 30.194C89.2354 30.362 89.6434 30.62 89.9554 30.968C90.2794 31.304 90.4414 31.796 90.4414 32.444C90.4534 33.248 90.1474 33.914 89.5234 34.442C88.9114 34.958 88.0774 35.216 87.0214 35.216ZM91.3954 37.142L92.4394 33.164H94.0054L92.4394 37.142H91.3954ZM100.654 35V22.4H102.166V35H100.654ZM112.482 35.216C111.738 35.216 111.12 35.09 110.628 34.838C110.136 34.586 109.77 34.25 109.53 33.83C109.29 33.41 109.17 32.954 109.17 32.462C109.17 31.55 109.518 30.848 110.214 30.356C110.91 29.864 111.858 29.618 113.058 29.618H115.47V29.51C115.47 28.73 115.266 28.142 114.858 27.746C114.45 27.338 113.904 27.134 113.22 27.134C112.632 27.134 112.122 27.284 111.69 27.584C111.27 27.872 111.006 28.298 110.898 28.862H109.35C109.41 28.214 109.626 27.668 109.998 27.224C110.382 26.78 110.856 26.444 111.42 26.216C111.984 25.976 112.584 25.856 113.22 25.856C114.468 25.856 115.404 26.192 116.028 26.864C116.664 27.524 116.982 28.406 116.982 29.51V35H115.632L115.542 33.398C115.29 33.902 114.918 34.334 114.426 34.694C113.946 35.042 113.298 35.216 112.482 35.216ZM112.716 33.938C113.292 33.938 113.784 33.788 114.192 33.488C114.612 33.188 114.93 32.798 115.146 32.318C115.362 31.838 115.47 31.334 115.47 30.806V30.788H113.184C112.296 30.788 111.666 30.944 111.294 31.256C110.934 31.556 110.754 31.934 110.754 32.39C110.754 32.858 110.922 33.236 111.258 33.524C111.606 33.8 112.092 33.938 112.716 33.938ZM119.25 35V26.072H120.618L120.726 27.368C121.014 26.888 121.398 26.516 121.878 26.252C122.358 25.988 122.898 25.856 123.498 25.856C124.206 25.856 124.812 26 125.316 26.288C125.832 26.576 126.228 27.014 126.504 27.602C126.816 27.062 127.242 26.636 127.782 26.324C128.334 26.012 128.928 25.856 129.564 25.856C130.632 25.856 131.484 26.18 132.12 26.828C132.756 27.464 133.074 28.448 133.074 29.78V35H131.58V29.942C131.58 29.018 131.394 28.322 131.022 27.854C130.65 27.386 130.116 27.152 129.42 27.152C128.7 27.152 128.1 27.434 127.62 27.998C127.152 28.55 126.918 29.342 126.918 30.374V35H125.406V29.942C125.406 29.018 125.22 28.322 124.848 27.854C124.476 27.386 123.942 27.152 123.246 27.152C122.538 27.152 121.944 27.434 121.464 27.998C120.996 28.55 120.762 29.342 120.762 30.374V35H119.25ZM145.731 35.216C144.495 35.216 143.427 34.946 142.527 34.406C141.639 33.854 140.949 33.092 140.457 32.12C139.965 31.136 139.719 29.996 139.719 28.7C139.719 27.416 139.965 26.288 140.457 25.316C140.949 24.332 141.639 23.564 142.527 23.012C143.427 22.46 144.495 22.184 145.731 22.184C147.171 22.184 148.341 22.532 149.241 23.228C150.153 23.912 150.735 24.872 150.987 26.108H149.313C149.121 25.328 148.725 24.704 148.125 24.236C147.537 23.756 146.739 23.516 145.731 23.516C144.831 23.516 144.045 23.726 143.373 24.146C142.701 24.554 142.179 25.148 141.807 25.928C141.447 26.696 141.267 27.62 141.267 28.7C141.267 29.78 141.447 30.71 141.807 31.49C142.179 32.258 142.701 32.852 143.373 33.272C144.045 33.68 144.831 33.884 145.731 33.884C146.739 33.884 147.537 33.656 148.125 33.2C148.725 32.732 149.121 32.114 149.313 31.346H150.987C150.735 32.558 150.153 33.506 149.241 34.19C148.341 34.874 147.171 35.216 145.731 35.216ZM153.07 35V22.04H154.582V27.602C154.882 27.05 155.308 26.624 155.86 26.324C156.412 26.012 157.012 25.856 157.66 25.856C158.692 25.856 159.52 26.18 160.144 26.828C160.768 27.464 161.08 28.448 161.08 29.78V35H159.586V29.942C159.586 28.082 158.836 27.152 157.336 27.152C156.556 27.152 155.902 27.434 155.374 27.998C154.846 28.55 154.582 29.342 154.582 30.374V35H153.07ZM166.341 35.216C165.597 35.216 164.979 35.09 164.487 34.838C163.995 34.586 163.629 34.25 163.389 33.83C163.149 33.41 163.029 32.954 163.029 32.462C163.029 31.55 163.377 30.848 164.073 30.356C164.769 29.864 165.717 29.618 166.917 29.618H169.329V29.51C169.329 28.73 169.125 28.142 168.717 27.746C168.309 27.338 167.763 27.134 167.079 27.134C166.491 27.134 165.981 27.284 165.549 27.584C165.129 27.872 164.865 28.298 164.757 28.862H163.209C163.269 28.214 163.485 27.668 163.857 27.224C164.241 26.78 164.715 26.444 165.279 26.216C165.843 25.976 166.443 25.856 167.079 25.856C168.327 25.856 169.263 26.192 169.887 26.864C170.523 27.524 170.841 28.406 170.841 29.51V35H169.491L169.401 33.398C169.149 33.902 168.777 34.334 168.285 34.694C167.805 35.042 167.157 35.216 166.341 35.216ZM166.575 33.938C167.151 33.938 167.643 33.788 168.051 33.488C168.471 33.188 168.789 32.798 169.005 32.318C169.221 31.838 169.329 31.334 169.329 30.806V30.788H167.043C166.155 30.788 165.525 30.944 165.153 31.256C164.793 31.556 164.613 31.934 164.613 32.39C164.613 32.858 164.781 33.236 165.117 33.524C165.465 33.8 165.951 33.938 166.575 33.938ZM173.109 35V26.072H174.477L174.603 27.782C174.879 27.194 175.299 26.726 175.863 26.378C176.427 26.03 177.123 25.856 177.951 25.856V27.44H177.537C177.009 27.44 176.523 27.536 176.079 27.728C175.635 27.908 175.281 28.22 175.017 28.664C174.753 29.108 174.621 29.72 174.621 30.5V35H173.109ZM179.648 35V22.04H181.16V35H179.648ZM187.652 35.216C186.8 35.216 186.044 35.024 185.384 34.64C184.724 34.244 184.202 33.698 183.818 33.002C183.446 32.306 183.26 31.484 183.26 30.536C183.26 29.6 183.446 28.784 183.818 28.088C184.19 27.38 184.706 26.834 185.366 26.45C186.038 26.054 186.812 25.856 187.688 25.856C188.552 25.856 189.296 26.054 189.92 26.45C190.556 26.834 191.042 27.344 191.378 27.98C191.714 28.616 191.882 29.3 191.882 30.032C191.882 30.164 191.876 30.296 191.864 30.428C191.864 30.56 191.864 30.71 191.864 30.878H184.754C184.79 31.562 184.946 32.132 185.222 32.588C185.51 33.032 185.864 33.368 186.284 33.596C186.716 33.824 187.172 33.938 187.652 33.938C188.276 33.938 188.798 33.794 189.218 33.506C189.638 33.218 189.944 32.828 190.136 32.336H191.63C191.39 33.164 190.928 33.854 190.244 34.406C189.572 34.946 188.708 35.216 187.652 35.216ZM187.652 27.134C186.932 27.134 186.29 27.356 185.726 27.8C185.174 28.232 184.856 28.868 184.772 29.708H190.388C190.352 28.904 190.076 28.274 189.56 27.818C189.044 27.362 188.408 27.134 187.652 27.134ZM197.307 35.216C196.239 35.216 195.351 34.946 194.643 34.406C193.935 33.866 193.521 33.134 193.401 32.21H194.949C195.045 32.678 195.291 33.086 195.687 33.434C196.095 33.77 196.641 33.938 197.325 33.938C197.961 33.938 198.429 33.806 198.729 33.542C199.029 33.266 199.179 32.942 199.179 32.57C199.179 32.03 198.981 31.67 198.585 31.49C198.201 31.31 197.655 31.148 196.947 31.004C196.467 30.908 195.987 30.77 195.507 30.59C195.027 30.41 194.625 30.158 194.301 29.834C193.977 29.498 193.815 29.06 193.815 28.52C193.815 27.74 194.103 27.104 194.679 26.612C195.267 26.108 196.059 25.856 197.055 25.856C198.003 25.856 198.777 26.096 199.377 26.576C199.989 27.044 200.343 27.716 200.439 28.592H198.945C198.885 28.136 198.687 27.782 198.351 27.53C198.027 27.266 197.589 27.134 197.037 27.134C196.497 27.134 196.077 27.248 195.777 27.476C195.489 27.704 195.345 28.004 195.345 28.376C195.345 28.736 195.531 29.018 195.903 29.222C196.287 29.426 196.803 29.6 197.451 29.744C198.003 29.864 198.525 30.014 199.017 30.194C199.521 30.362 199.929 30.62 200.241 30.968C200.565 31.304 200.727 31.796 200.727 32.444C200.739 33.248 200.433 33.914 199.809 34.442C199.197 34.958 198.363 35.216 197.307 35.216ZM210.62 35.216C209.876 35.216 209.258 35.09 208.766 34.838C208.274 34.586 207.908 34.25 207.668 33.83C207.428 33.41 207.308 32.954 207.308 32.462C207.308 31.55 207.656 30.848 208.352 30.356C209.048 29.864 209.996 29.618 211.196 29.618H213.608V29.51C213.608 28.73 213.404 28.142 212.996 27.746C212.588 27.338 212.042 27.134 211.358 27.134C210.77 27.134 210.26 27.284 209.828 27.584C209.408 27.872 209.144 28.298 209.036 28.862H207.488C207.548 28.214 207.764 27.668 208.136 27.224C208.52 26.78 208.994 26.444 209.558 26.216C210.122 25.976 210.722 25.856 211.358 25.856C212.606 25.856 213.542 26.192 214.166 26.864C214.802 27.524 215.12 28.406 215.12 29.51V35H213.77L213.68 33.398C213.428 33.902 213.056 34.334 212.564 34.694C212.084 35.042 211.436 35.216 210.62 35.216ZM210.854 33.938C211.43 33.938 211.922 33.788 212.33 33.488C212.75 33.188 213.068 32.798 213.284 32.318C213.5 31.838 213.608 31.334 213.608 30.806V30.788H211.322C210.434 30.788 209.804 30.944 209.432 31.256C209.072 31.556 208.892 31.934 208.892 32.39C208.892 32.858 209.06 33.236 209.396 33.524C209.744 33.8 210.23 33.938 210.854 33.938ZM217.388 35V26.072H218.756L218.846 27.674C219.134 27.11 219.548 26.666 220.088 26.342C220.628 26.018 221.24 25.856 221.924 25.856C222.98 25.856 223.82 26.18 224.444 26.828C225.08 27.464 225.398 28.448 225.398 29.78V35H223.886V29.942C223.886 28.082 223.118 27.152 221.582 27.152C220.814 27.152 220.172 27.434 219.656 27.998C219.152 28.55 218.9 29.342 218.9 30.374V35H217.388ZM235.711 35.216C234.655 35.216 233.815 34.898 233.191 34.262C232.567 33.614 232.255 32.624 232.255 31.292V26.072H233.767V31.13C233.767 32.99 234.529 33.92 236.053 33.92C236.833 33.92 237.475 33.644 237.979 33.092C238.495 32.528 238.753 31.73 238.753 30.698V26.072H240.265V35H238.897L238.789 33.398C238.513 33.962 238.099 34.406 237.547 34.73C237.007 35.054 236.395 35.216 235.711 35.216ZM242.754 38.96V26.072H244.122L244.266 27.548C244.554 27.116 244.962 26.726 245.49 26.378C246.03 26.03 246.714 25.856 247.542 25.856C248.43 25.856 249.204 26.06 249.864 26.468C250.524 26.876 251.034 27.434 251.394 28.142C251.766 28.85 251.952 29.654 251.952 30.554C251.952 31.454 251.766 32.258 251.394 32.966C251.034 33.662 250.518 34.214 249.846 34.622C249.186 35.018 248.412 35.216 247.524 35.216C246.792 35.216 246.138 35.066 245.562 34.766C244.998 34.466 244.566 34.046 244.266 33.506V38.96H242.754ZM247.362 33.902C247.962 33.902 248.49 33.764 248.946 33.488C249.402 33.2 249.762 32.804 250.026 32.3C250.29 31.796 250.422 31.208 250.422 30.536C250.422 29.864 250.29 29.276 250.026 28.772C249.762 28.268 249.402 27.878 248.946 27.602C248.49 27.314 247.962 27.17 247.362 27.17C246.762 27.17 246.234 27.314 245.778 27.602C245.322 27.878 244.962 28.268 244.698 28.772C244.434 29.276 244.302 29.864 244.302 30.536C244.302 31.208 244.434 31.796 244.698 32.3C244.962 32.804 245.322 33.2 245.778 33.488C246.234 33.764 246.762 33.902 247.362 33.902ZM258.16 35.216C257.308 35.216 256.54 35.024 255.856 34.64C255.184 34.244 254.65 33.698 254.254 33.002C253.87 32.294 253.678 31.472 253.678 30.536C253.678 29.6 253.87 28.784 254.254 28.088C254.65 27.38 255.184 26.834 255.856 26.45C256.54 26.054 257.308 25.856 258.16 25.856C259.216 25.856 260.104 26.132 260.824 26.684C261.556 27.236 262.018 27.974 262.21 28.898H260.662C260.542 28.346 260.248 27.92 259.78 27.62C259.312 27.308 258.766 27.152 258.142 27.152C257.638 27.152 257.164 27.278 256.72 27.53C256.276 27.782 255.916 28.16 255.64 28.664C255.364 29.168 255.226 29.792 255.226 30.536C255.226 31.28 255.364 31.904 255.64 32.408C255.916 32.912 256.276 33.296 256.72 33.56C257.164 33.812 257.638 33.938 258.142 33.938C258.766 33.938 259.312 33.788 259.78 33.488C260.248 33.176 260.542 32.738 260.662 32.174H262.21C262.03 33.074 261.574 33.806 260.842 34.37C260.11 34.934 259.216 35.216 258.16 35.216ZM268.39 35.216C267.55 35.216 266.794 35.024 266.122 34.64C265.45 34.256 264.916 33.716 264.52 33.02C264.136 32.312 263.944 31.484 263.944 30.536C263.944 29.588 264.142 28.766 264.538 28.07C264.934 27.362 265.468 26.816 266.14 26.432C266.824 26.048 267.586 25.856 268.426 25.856C269.266 25.856 270.022 26.048 270.694 26.432C271.366 26.816 271.894 27.362 272.278 28.07C272.674 28.766 272.872 29.588 272.872 30.536C272.872 31.484 272.674 32.312 272.278 33.02C271.882 33.716 271.342 34.256 270.658 34.64C269.986 35.024 269.23 35.216 268.39 35.216ZM268.39 33.92C268.906 33.92 269.386 33.794 269.83 33.542C270.274 33.29 270.634 32.912 270.91 32.408C271.186 31.904 271.324 31.28 271.324 30.536C271.324 29.792 271.186 29.168 270.91 28.664C270.646 28.16 270.292 27.782 269.848 27.53C269.404 27.278 268.93 27.152 268.426 27.152C267.91 27.152 267.43 27.278 266.986 27.53C266.542 27.782 266.182 28.16 265.906 28.664C265.63 29.168 265.492 29.792 265.492 30.536C265.492 31.28 265.63 31.904 265.906 32.408C266.182 32.912 266.536 33.29 266.968 33.542C267.412 33.794 267.886 33.92 268.39 33.92ZM274.974 35V26.072H276.342L276.45 27.368C276.738 26.888 277.122 26.516 277.602 26.252C278.082 25.988 278.622 25.856 279.222 25.856C279.93 25.856 280.536 26 281.04 26.288C281.556 26.576 281.952 27.014 282.228 27.602C282.54 27.062 282.966 26.636 283.506 26.324C284.058 26.012 284.652 25.856 285.288 25.856C286.356 25.856 287.208 26.18 287.844 26.828C288.48 27.464 288.798 28.448 288.798 29.78V35H287.304V29.942C287.304 29.018 287.118 28.322 286.746 27.854C286.374 27.386 285.84 27.152 285.144 27.152C284.424 27.152 283.824 27.434 283.344 27.998C282.876 28.55 282.642 29.342 282.642 30.374V35H281.13V29.942C281.13 29.018 280.944 28.322 280.572 27.854C280.2 27.386 279.666 27.152 278.97 27.152C278.262 27.152 277.668 27.434 277.188 27.998C276.72 28.55 276.486 29.342 276.486 30.374V35H274.974ZM291.994 24.092C291.694 24.092 291.442 23.996 291.238 23.804C291.046 23.6 290.95 23.348 290.95 23.048C290.95 22.76 291.046 22.52 291.238 22.328C291.442 22.136 291.694 22.04 291.994 22.04C292.282 22.04 292.528 22.136 292.732 22.328C292.936 22.52 293.038 22.76 293.038 23.048C293.038 23.348 292.936 23.6 292.732 23.804C292.528 23.996 292.282 24.092 291.994 24.092ZM291.238 35V26.072H292.75V35H291.238ZM295.383 35V26.072H296.751L296.841 27.674C297.129 27.11 297.543 26.666 298.083 26.342C298.623 26.018 299.235 25.856 299.919 25.856C300.975 25.856 301.815 26.18 302.439 26.828C303.075 27.464 303.393 28.448 303.393 29.78V35H301.881V29.942C301.881 28.082 301.113 27.152 299.577 27.152C298.809 27.152 298.167 27.434 297.651 27.998C297.147 28.55 296.895 29.342 296.895 30.374V35H295.383ZM309.211 32.192C308.707 32.192 308.245 32.126 307.825 31.994L306.925 32.84C307.057 32.936 307.219 33.02 307.411 33.092C307.615 33.152 307.903 33.212 308.275 33.272C308.647 33.32 309.169 33.374 309.841 33.434C311.041 33.518 311.899 33.794 312.415 34.262C312.931 34.73 313.189 35.342 313.189 36.098C313.189 36.614 313.045 37.106 312.757 37.574C312.481 38.042 312.049 38.426 311.461 38.726C310.885 39.026 310.141 39.176 309.229 39.176C308.425 39.176 307.711 39.068 307.087 38.852C306.463 38.648 305.977 38.33 305.629 37.898C305.281 37.478 305.107 36.944 305.107 36.296C305.107 35.96 305.197 35.594 305.377 35.198C305.557 34.814 305.893 34.448 306.385 34.1C306.121 33.992 305.893 33.878 305.701 33.758C305.521 33.626 305.353 33.482 305.197 33.326V32.912L306.727 31.4C306.019 30.8 305.665 30.008 305.665 29.024C305.665 28.436 305.803 27.902 306.079 27.422C306.355 26.942 306.757 26.564 307.285 26.288C307.813 26 308.455 25.856 309.211 25.856C309.727 25.856 310.195 25.928 310.615 26.072H313.909V27.206L312.235 27.278C312.583 27.782 312.757 28.364 312.757 29.024C312.757 29.612 312.613 30.146 312.325 30.626C312.049 31.106 311.647 31.49 311.119 31.778C310.603 32.054 309.967 32.192 309.211 32.192ZM309.211 30.95C309.847 30.95 310.351 30.788 310.723 30.464C311.107 30.128 311.299 29.648 311.299 29.024C311.299 28.412 311.107 27.944 310.723 27.62C310.351 27.284 309.847 27.116 309.211 27.116C308.563 27.116 308.047 27.284 307.663 27.62C307.291 27.944 307.105 28.412 307.105 29.024C307.105 29.648 307.291 30.128 307.663 30.464C308.047 30.788 308.563 30.95 309.211 30.95ZM306.583 36.152C306.583 36.752 306.835 37.196 307.339 37.484C307.843 37.784 308.473 37.934 309.229 37.934C309.973 37.934 310.567 37.772 311.011 37.448C311.467 37.124 311.695 36.692 311.695 36.152C311.695 35.768 311.539 35.432 311.227 35.144C310.915 34.868 310.339 34.706 309.499 34.658C308.839 34.61 308.269 34.55 307.789 34.478C307.297 34.742 306.973 35.024 306.817 35.324C306.661 35.636 306.583 35.912 306.583 36.152ZM16.242 65.96V53.072H17.61L17.754 54.548C18.042 54.116 18.45 53.726 18.978 53.378C19.518 53.03 20.202 52.856 21.03 52.856C21.918 52.856 22.692 53.06 23.352 53.468C24.012 53.876 24.522 54.434 24.882 55.142C25.254 55.85 25.44 56.654 25.44 57.554C25.44 58.454 25.254 59.258 24.882 59.966C24.522 60.662 24.006 61.214 23.334 61.622C22.674 62.018 21.9 62.216 21.012 62.216C20.28 62.216 19.626 62.066 19.05 61.766C18.486 61.466 18.054 61.046 17.754 60.506V65.96H16.242ZM20.85 60.902C21.45 60.902 21.978 60.764 22.434 60.488C22.89 60.2 23.25 59.804 23.514 59.3C23.778 58.796 23.91 58.208 23.91 57.536C23.91 56.864 23.778 56.276 23.514 55.772C23.25 55.268 22.89 54.878 22.434 54.602C21.978 54.314 21.45 54.17 20.85 54.17C20.25 54.17 19.722 54.314 19.266 54.602C18.81 54.878 18.45 55.268 18.186 55.772C17.922 56.276 17.79 56.864 17.79 57.536C17.79 58.208 17.922 58.796 18.186 59.3C18.45 59.804 18.81 60.2 19.266 60.488C19.722 60.764 20.25 60.902 20.85 60.902ZM27.5447 62V53.072H28.9127L29.0387 54.782C29.3147 54.194 29.7347 53.726 30.2987 53.378C30.8627 53.03 31.5587 52.856 32.3867 52.856V54.44H31.9727C31.4447 54.44 30.9587 54.536 30.5147 54.728C30.0707 54.908 29.7167 55.22 29.4527 55.664C29.1887 56.108 29.0567 56.72 29.0567 57.5V62H27.5447ZM37.8178 62.216C36.9778 62.216 36.2218 62.024 35.5498 61.64C34.8778 61.256 34.3438 60.716 33.9478 60.02C33.5638 59.312 33.3718 58.484 33.3718 57.536C33.3718 56.588 33.5698 55.766 33.9658 55.07C34.3618 54.362 34.8958 53.816 35.5678 53.432C36.2518 53.048 37.0138 52.856 37.8538 52.856C38.6938 52.856 39.4498 53.048 40.1218 53.432C40.7938 53.816 41.3218 54.362 41.7058 55.07C42.1018 55.766 42.2998 56.588 42.2998 57.536C42.2998 58.484 42.1018 59.312 41.7058 60.02C41.3098 60.716 40.7698 61.256 40.0858 61.64C39.4138 62.024 38.6578 62.216 37.8178 62.216ZM37.8178 60.92C38.3338 60.92 38.8138 60.794 39.2578 60.542C39.7018 60.29 40.0618 59.912 40.3378 59.408C40.6138 58.904 40.7518 58.28 40.7518 57.536C40.7518 56.792 40.6138 56.168 40.3378 55.664C40.0738 55.16 39.7198 54.782 39.2758 54.53C38.8318 54.278 38.3578 54.152 37.8538 54.152C37.3378 54.152 36.8578 54.278 36.4138 54.53C35.9698 54.782 35.6098 55.16 35.3338 55.664C35.0578 56.168 34.9198 56.792 34.9198 57.536C34.9198 58.28 35.0578 58.904 35.3338 59.408C35.6098 59.912 35.9638 60.29 36.3958 60.542C36.8398 60.794 37.3138 60.92 37.8178 60.92ZM48.4522 62.216C47.5642 62.216 46.7842 62.012 46.1122 61.604C45.4522 61.196 44.9362 60.638 44.5642 59.93C44.2042 59.222 44.0242 58.418 44.0242 57.518C44.0242 56.618 44.2102 55.82 44.5822 55.124C44.9542 54.416 45.4702 53.864 46.1302 53.468C46.7902 53.06 47.5702 52.856 48.4702 52.856C49.2022 52.856 49.8502 53.006 50.4142 53.306C50.9782 53.606 51.4162 54.026 51.7282 54.566V49.04H53.2402V62H51.8722L51.7282 60.524C51.4402 60.956 51.0262 61.346 50.4862 61.694C49.9462 62.042 49.2682 62.216 48.4522 62.216ZM48.6142 60.902C49.2142 60.902 49.7422 60.764 50.1982 60.488C50.6662 60.2 51.0262 59.804 51.2782 59.3C51.5422 58.796 51.6742 58.208 51.6742 57.536C51.6742 56.864 51.5422 56.276 51.2782 55.772C51.0262 55.268 50.6662 54.878 50.1982 54.602C49.7422 54.314 49.2142 54.17 48.6142 54.17C48.0262 54.17 47.4982 54.314 47.0302 54.602C46.5742 54.878 46.2142 55.268 45.9502 55.772C45.6982 56.276 45.5722 56.864 45.5722 57.536C45.5722 58.208 45.6982 58.796 45.9502 59.3C46.2142 59.804 46.5742 60.2 47.0302 60.488C47.4982 60.764 48.0262 60.902 48.6142 60.902ZM58.9629 62.216C57.9069 62.216 57.0669 61.898 56.4429 61.262C55.8189 60.614 55.5069 59.624 55.5069 58.292V53.072H57.0189V58.13C57.0189 59.99 57.7809 60.92 59.3049 60.92C60.0849 60.92 60.7269 60.644 61.2309 60.092C61.7469 59.528 62.0049 58.73 62.0049 57.698V53.072H63.5169V62H62.1489L62.0409 60.398C61.7649 60.962 61.3509 61.406 60.7989 61.73C60.2589 62.054 59.6469 62.216 58.9629 62.216ZM70.1097 62.216C69.2577 62.216 68.4897 62.024 67.8057 61.64C67.1337 61.244 66.5997 60.698 66.2037 60.002C65.8197 59.294 65.6277 58.472 65.6277 57.536C65.6277 56.6 65.8197 55.784 66.2037 55.088C66.5997 54.38 67.1337 53.834 67.8057 53.45C68.4897 53.054 69.2577 52.856 70.1097 52.856C71.1657 52.856 72.0537 53.132 72.7737 53.684C73.5057 54.236 73.9677 54.974 74.1597 55.898H72.6117C72.4917 55.346 72.1977 54.92 71.7297 54.62C71.2617 54.308 70.7157 54.152 70.0917 54.152C69.5877 54.152 69.1137 54.278 68.6697 54.53C68.2257 54.782 67.8657 55.16 67.5897 55.664C67.3137 56.168 67.1757 56.792 67.1757 57.536C67.1757 58.28 67.3137 58.904 67.5897 59.408C67.8657 59.912 68.2257 60.296 68.6697 60.56C69.1137 60.812 69.5877 60.938 70.0917 60.938C70.7157 60.938 71.2617 60.788 71.7297 60.488C72.1977 60.176 72.4917 59.738 72.6117 59.174H74.1597C73.9797 60.074 73.5237 60.806 72.7917 61.37C72.0597 61.934 71.1657 62.216 70.1097 62.216ZM80.2853 62.216C79.4333 62.216 78.6773 62.024 78.0173 61.64C77.3573 61.244 76.8353 60.698 76.4513 60.002C76.0793 59.306 75.8933 58.484 75.8933 57.536C75.8933 56.6 76.0793 55.784 76.4513 55.088C76.8233 54.38 77.3393 53.834 77.9993 53.45C78.6713 53.054 79.4453 52.856 80.3213 52.856C81.1853 52.856 81.9293 53.054 82.5533 53.45C83.1893 53.834 83.6753 54.344 84.0113 54.98C84.3473 55.616 84.5153 56.3 84.5153 57.032C84.5153 57.164 84.5093 57.296 84.4973 57.428C84.4973 57.56 84.4973 57.71 84.4973 57.878H77.3873C77.4233 58.562 77.5793 59.132 77.8553 59.588C78.1433 60.032 78.4973 60.368 78.9173 60.596C79.3493 60.824 79.8053 60.938 80.2853 60.938C80.9093 60.938 81.4313 60.794 81.8513 60.506C82.2713 60.218 82.5773 59.828 82.7693 59.336H84.2633C84.0233 60.164 83.5613 60.854 82.8773 61.406C82.2053 61.946 81.3413 62.216 80.2853 62.216ZM80.2853 54.134C79.5653 54.134 78.9233 54.356 78.3593 54.8C77.8073 55.232 77.4893 55.868 77.4053 56.708H83.0213C82.9853 55.904 82.7093 55.274 82.1933 54.818C81.6773 54.362 81.0413 54.134 80.2853 54.134ZM86.5193 62V53.072H87.8873L88.0133 54.782C88.2893 54.194 88.7093 53.726 89.2733 53.378C89.8373 53.03 90.5333 52.856 91.3613 52.856V54.44H90.9473C90.4193 54.44 89.9333 54.536 89.4893 54.728C89.0453 54.908 88.6913 55.22 88.4273 55.664C88.1633 56.108 88.0313 56.72 88.0313 57.5V62H86.5193ZM100.792 62.216C100.048 62.216 99.4301 62.09 98.9381 61.838C98.4461 61.586 98.0801 61.25 97.8401 60.83C97.6001 60.41 97.4801 59.954 97.4801 59.462C97.4801 58.55 97.8281 57.848 98.5241 57.356C99.2201 56.864 100.168 56.618 101.368 56.618H103.78V56.51C103.78 55.73 103.576 55.142 103.168 54.746C102.76 54.338 102.214 54.134 101.53 54.134C100.942 54.134 100.432 54.284 100 54.584C99.5801 54.872 99.3161 55.298 99.2081 55.862H97.6601C97.7201 55.214 97.9361 54.668 98.3081 54.224C98.6921 53.78 99.1661 53.444 99.7301 53.216C100.294 52.976 100.894 52.856 101.53 52.856C102.778 52.856 103.714 53.192 104.338 53.864C104.974 54.524 105.292 55.406 105.292 56.51V62H103.942L103.852 60.398C103.6 60.902 103.228 61.334 102.736 61.694C102.256 62.042 101.608 62.216 100.792 62.216ZM101.026 60.938C101.602 60.938 102.094 60.788 102.502 60.488C102.922 60.188 103.24 59.798 103.456 59.318C103.672 58.838 103.78 58.334 103.78 57.806V57.788H101.494C100.606 57.788 99.9761 57.944 99.6041 58.256C99.2441 58.556 99.0641 58.934 99.0641 59.39C99.0641 59.858 99.2321 60.236 99.5681 60.524C99.9161 60.8 100.402 60.938 101.026 60.938ZM107.56 62V53.072H108.928L109.018 54.674C109.306 54.11 109.72 53.666 110.26 53.342C110.8 53.018 111.412 52.856 112.096 52.856C113.152 52.856 113.992 53.18 114.616 53.828C115.252 54.464 115.57 55.448 115.57 56.78V62H114.058V56.942C114.058 55.082 113.29 54.152 111.754 54.152C110.986 54.152 110.344 54.434 109.828 54.998C109.324 55.55 109.072 56.342 109.072 57.374V62H107.56ZM121.911 62.216C121.023 62.216 120.243 62.012 119.571 61.604C118.911 61.196 118.395 60.638 118.023 59.93C117.663 59.222 117.483 58.418 117.483 57.518C117.483 56.618 117.669 55.82 118.041 55.124C118.413 54.416 118.929 53.864 119.589 53.468C120.249 53.06 121.029 52.856 121.929 52.856C122.661 52.856 123.309 53.006 123.873 53.306C124.437 53.606 124.875 54.026 125.187 54.566V49.04H126.699V62H125.331L125.187 60.524C124.899 60.956 124.485 61.346 123.945 61.694C123.405 62.042 122.727 62.216 121.911 62.216ZM122.073 60.902C122.673 60.902 123.201 60.764 123.657 60.488C124.125 60.2 124.485 59.804 124.737 59.3C125.001 58.796 125.133 58.208 125.133 57.536C125.133 56.864 125.001 56.276 124.737 55.772C124.485 55.268 124.125 54.878 123.657 54.602C123.201 54.314 122.673 54.17 122.073 54.17C121.485 54.17 120.957 54.314 120.489 54.602C120.033 54.878 119.673 55.268 119.409 55.772C119.157 56.276 119.031 56.864 119.031 57.536C119.031 58.208 119.157 58.796 119.409 59.3C119.673 59.804 120.033 60.2 120.489 60.488C120.957 60.764 121.485 60.902 122.073 60.902ZM134.018 62V49.4H135.53V62H134.018ZM142.875 62V53.072H144.243L144.351 54.368C144.639 53.888 145.023 53.516 145.503 53.252C145.983 52.988 146.523 52.856 147.123 52.856C147.831 52.856 148.437 53 148.941 53.288C149.457 53.576 149.853 54.014 150.129 54.602C150.441 54.062 150.867 53.636 151.407 53.324C151.959 53.012 152.553 52.856 153.189 52.856C154.257 52.856 155.109 53.18 155.745 53.828C156.381 54.464 156.699 55.448 156.699 56.78V62H155.205V56.942C155.205 56.018 155.019 55.322 154.647 54.854C154.275 54.386 153.741 54.152 153.045 54.152C152.325 54.152 151.725 54.434 151.245 54.998C150.777 55.55 150.543 56.342 150.543 57.374V62H149.031V56.942C149.031 56.018 148.845 55.322 148.473 54.854C148.101 54.386 147.567 54.152 146.871 54.152C146.163 54.152 145.569 54.434 145.089 54.998C144.621 55.55 144.387 56.342 144.387 57.374V62H142.875ZM161.946 62.216C161.202 62.216 160.584 62.09 160.092 61.838C159.6 61.586 159.234 61.25 158.994 60.83C158.754 60.41 158.634 59.954 158.634 59.462C158.634 58.55 158.982 57.848 159.678 57.356C160.374 56.864 161.322 56.618 162.522 56.618H164.934V56.51C164.934 55.73 164.73 55.142 164.322 54.746C163.914 54.338 163.368 54.134 162.684 54.134C162.096 54.134 161.586 54.284 161.154 54.584C160.734 54.872 160.47 55.298 160.362 55.862H158.814C158.874 55.214 159.09 54.668 159.462 54.224C159.846 53.78 160.32 53.444 160.884 53.216C161.448 52.976 162.048 52.856 162.684 52.856C163.932 52.856 164.868 53.192 165.492 53.864C166.128 54.524 166.446 55.406 166.446 56.51V62H165.096L165.006 60.398C164.754 60.902 164.382 61.334 163.89 61.694C163.41 62.042 162.762 62.216 161.946 62.216ZM162.18 60.938C162.756 60.938 163.248 60.788 163.656 60.488C164.076 60.188 164.394 59.798 164.61 59.318C164.826 58.838 164.934 58.334 164.934 57.806V57.788H162.648C161.76 57.788 161.13 57.944 160.758 58.256C160.398 58.556 160.218 58.934 160.218 59.39C160.218 59.858 160.386 60.236 160.722 60.524C161.07 60.8 161.556 60.938 162.18 60.938ZM168.715 62V49.04H170.227V56.834L173.881 53.072H175.735L171.775 57.104L176.239 62H174.313L170.227 57.374V62H168.715ZM181.149 62.216C180.297 62.216 179.541 62.024 178.881 61.64C178.221 61.244 177.699 60.698 177.315 60.002C176.943 59.306 176.757 58.484 176.757 57.536C176.757 56.6 176.943 55.784 177.315 55.088C177.687 54.38 178.203 53.834 178.863 53.45C179.535 53.054 180.309 52.856 181.185 52.856C182.049 52.856 182.793 53.054 183.417 53.45C184.053 53.834 184.539 54.344 184.875 54.98C185.211 55.616 185.379 56.3 185.379 57.032C185.379 57.164 185.373 57.296 185.361 57.428C185.361 57.56 185.361 57.71 185.361 57.878H178.251C178.287 58.562 178.443 59.132 178.719 59.588C179.007 60.032 179.361 60.368 179.781 60.596C180.213 60.824 180.669 60.938 181.149 60.938C181.773 60.938 182.295 60.794 182.715 60.506C183.135 60.218 183.441 59.828 183.633 59.336H185.127C184.887 60.164 184.425 60.854 183.741 61.406C183.069 61.946 182.205 62.216 181.149 62.216ZM181.149 54.134C180.429 54.134 179.787 54.356 179.223 54.8C178.671 55.232 178.353 55.868 178.269 56.708H183.885C183.849 55.904 183.573 55.274 183.057 54.818C182.541 54.362 181.905 54.134 181.149 54.134ZM196.916 62.216C196.184 62.216 195.53 62.066 194.954 61.766C194.39 61.466 193.958 61.046 193.658 60.506L193.514 62H192.146V49.04H193.658V54.548C193.946 54.116 194.354 53.726 194.882 53.378C195.422 53.03 196.106 52.856 196.934 52.856C197.822 52.856 198.596 53.06 199.256 53.468C199.916 53.876 200.426 54.434 200.786 55.142C201.158 55.85 201.344 56.654 201.344 57.554C201.344 58.454 201.158 59.258 200.786 59.966C200.426 60.662 199.91 61.214 199.238 61.622C198.578 62.018 197.804 62.216 196.916 62.216ZM196.754 60.902C197.354 60.902 197.882 60.764 198.338 60.488C198.794 60.2 199.154 59.804 199.418 59.3C199.682 58.796 199.814 58.208 199.814 57.536C199.814 56.864 199.682 56.276 199.418 55.772C199.154 55.268 198.794 54.878 198.338 54.602C197.882 54.314 197.354 54.17 196.754 54.17C196.154 54.17 195.626 54.314 195.17 54.602C194.714 54.878 194.354 55.268 194.09 55.772C193.826 56.276 193.694 56.864 193.694 57.536C193.694 58.208 193.826 58.796 194.09 59.3C194.354 59.804 194.714 60.2 195.17 60.488C195.626 60.764 196.154 60.902 196.754 60.902ZM207.463 62.216C206.611 62.216 205.855 62.024 205.195 61.64C204.535 61.244 204.013 60.698 203.629 60.002C203.257 59.306 203.071 58.484 203.071 57.536C203.071 56.6 203.257 55.784 203.629 55.088C204.001 54.38 204.517 53.834 205.177 53.45C205.849 53.054 206.623 52.856 207.499 52.856C208.363 52.856 209.107 53.054 209.731 53.45C210.367 53.834 210.853 54.344 211.189 54.98C211.525 55.616 211.693 56.3 211.693 57.032C211.693 57.164 211.687 57.296 211.675 57.428C211.675 57.56 211.675 57.71 211.675 57.878H204.565C204.601 58.562 204.757 59.132 205.033 59.588C205.321 60.032 205.675 60.368 206.095 60.596C206.527 60.824 206.983 60.938 207.463 60.938C208.087 60.938 208.609 60.794 209.029 60.506C209.449 60.218 209.755 59.828 209.947 59.336H211.441C211.201 60.164 210.739 60.854 210.055 61.406C209.383 61.946 208.519 62.216 207.463 62.216ZM207.463 54.134C206.743 54.134 206.101 54.356 205.537 54.8C204.985 55.232 204.667 55.868 204.583 56.708H210.199C210.163 55.904 209.887 55.274 209.371 54.818C208.855 54.362 208.219 54.134 207.463 54.134ZM216.667 62.216C215.923 62.216 215.305 62.09 214.813 61.838C214.321 61.586 213.955 61.25 213.715 60.83C213.475 60.41 213.355 59.954 213.355 59.462C213.355 58.55 213.703 57.848 214.399 57.356C215.095 56.864 216.043 56.618 217.243 56.618H219.655V56.51C219.655 55.73 219.451 55.142 219.043 54.746C218.635 54.338 218.089 54.134 217.405 54.134C216.817 54.134 216.307 54.284 215.875 54.584C215.455 54.872 215.191 55.298 215.083 55.862H213.535C213.595 55.214 213.811 54.668 214.183 54.224C214.567 53.78 215.041 53.444 215.605 53.216C216.169 52.976 216.769 52.856 217.405 52.856C218.653 52.856 219.589 53.192 220.213 53.864C220.849 54.524 221.167 55.406 221.167 56.51V62H219.817L219.727 60.398C219.475 60.902 219.103 61.334 218.611 61.694C218.131 62.042 217.483 62.216 216.667 62.216ZM216.901 60.938C217.477 60.938 217.969 60.788 218.377 60.488C218.797 60.188 219.115 59.798 219.331 59.318C219.547 58.838 219.655 58.334 219.655 57.806V57.788H217.369C216.481 57.788 215.851 57.944 215.479 58.256C215.119 58.556 214.939 58.934 214.939 59.39C214.939 59.858 215.107 60.236 215.443 60.524C215.791 60.8 216.277 60.938 216.901 60.938ZM226.717 62C225.901 62 225.259 61.802 224.791 61.406C224.323 61.01 224.089 60.296 224.089 59.264V54.35H222.541V53.072H224.089L224.287 50.93H225.601V53.072H228.229V54.35H225.601V59.264C225.601 59.828 225.715 60.212 225.943 60.416C226.171 60.608 226.573 60.704 227.149 60.704H228.085V62H226.717ZM233.57 62.216C232.502 62.216 231.614 61.946 230.906 61.406C230.198 60.866 229.784 60.134 229.664 59.21H231.212C231.308 59.678 231.554 60.086 231.95 60.434C232.358 60.77 232.904 60.938 233.588 60.938C234.224 60.938 234.692 60.806 234.992 60.542C235.292 60.266 235.442 59.942 235.442 59.57C235.442 59.03 235.244 58.67 234.848 58.49C234.464 58.31 233.918 58.148 233.21 58.004C232.73 57.908 232.25 57.77 231.77 57.59C231.29 57.41 230.888 57.158 230.564 56.834C230.24 56.498 230.078 56.06 230.078 55.52C230.078 54.74 230.366 54.104 230.942 53.612C231.53 53.108 232.322 52.856 233.318 52.856C234.266 52.856 235.04 53.096 235.64 53.576C236.252 54.044 236.606 54.716 236.702 55.592H235.208C235.148 55.136 234.95 54.782 234.614 54.53C234.29 54.266 233.852 54.134 233.3 54.134C232.76 54.134 232.34 54.248 232.04 54.476C231.752 54.704 231.608 55.004 231.608 55.376C231.608 55.736 231.794 56.018 232.166 56.222C232.55 56.426 233.066 56.6 233.714 56.744C234.266 56.864 234.788 57.014 235.28 57.194C235.784 57.362 236.192 57.62 236.504 57.968C236.828 58.304 236.99 58.796 236.99 59.444C237.002 60.248 236.696 60.914 236.072 61.442C235.46 61.958 234.626 62.216 233.57 62.216ZM245.714 62L243.104 53.072H244.616L246.506 60.074L248.594 53.072H250.304L252.41 60.074L254.282 53.072H255.812L253.202 62H251.654L249.458 54.638L247.262 62H245.714ZM257.484 62V49.04H258.996V54.602C259.296 54.05 259.722 53.624 260.274 53.324C260.826 53.012 261.426 52.856 262.074 52.856C263.106 52.856 263.934 53.18 264.558 53.828C265.182 54.464 265.494 55.448 265.494 56.78V62H264V56.942C264 55.082 263.25 54.152 261.75 54.152C260.97 54.152 260.316 54.434 259.788 54.998C259.26 55.55 258.996 56.342 258.996 57.374V62H257.484ZM268.703 51.092C268.403 51.092 268.151 50.996 267.947 50.804C267.755 50.6 267.659 50.348 267.659 50.048C267.659 49.76 267.755 49.52 267.947 49.328C268.151 49.136 268.403 49.04 268.703 49.04C268.991 49.04 269.237 49.136 269.441 49.328C269.645 49.52 269.747 49.76 269.747 50.048C269.747 50.348 269.645 50.6 269.441 50.804C269.237 50.996 268.991 51.092 268.703 51.092ZM267.947 62V53.072H269.459V62H267.947ZM276.196 62.216C275.344 62.216 274.576 62.024 273.892 61.64C273.22 61.244 272.686 60.698 272.29 60.002C271.906 59.294 271.714 58.472 271.714 57.536C271.714 56.6 271.906 55.784 272.29 55.088C272.686 54.38 273.22 53.834 273.892 53.45C274.576 53.054 275.344 52.856 276.196 52.856C277.252 52.856 278.14 53.132 278.86 53.684C279.592 54.236 280.054 54.974 280.246 55.898H278.698C278.578 55.346 278.284 54.92 277.816 54.62C277.348 54.308 276.802 54.152 276.178 54.152C275.674 54.152 275.2 54.278 274.756 54.53C274.312 54.782 273.952 55.16 273.676 55.664C273.4 56.168 273.262 56.792 273.262 57.536C273.262 58.28 273.4 58.904 273.676 59.408C273.952 59.912 274.312 60.296 274.756 60.56C275.2 60.812 275.674 60.938 276.178 60.938C276.802 60.938 277.348 60.788 277.816 60.488C278.284 60.176 278.578 59.738 278.698 59.174H280.246C280.066 60.074 279.61 60.806 278.878 61.37C278.146 61.934 277.252 62.216 276.196 62.216ZM282.357 62V49.04H283.869V54.602C284.169 54.05 284.595 53.624 285.147 53.324C285.699 53.012 286.299 52.856 286.947 52.856C287.979 52.856 288.807 53.18 289.431 53.828C290.055 54.464 290.367 55.448 290.367 56.78V62H288.873V56.942C288.873 55.082 288.123 54.152 286.623 54.152C285.843 54.152 285.189 54.434 284.661 54.998C284.133 55.55 283.869 56.342 283.869 57.374V62H282.357ZM297.512 62V49.4H299.024V62H297.512ZM300.957 53.414L302.001 49.4H303.693L302.037 53.414H300.957ZM309.487 62.216C308.599 62.216 307.819 62.012 307.147 61.604C306.487 61.196 305.971 60.638 305.599 59.93C305.239 59.222 305.059 58.418 305.059 57.518C305.059 56.618 305.245 55.82 305.617 55.124C305.989 54.416 306.505 53.864 307.165 53.468C307.825 53.06 308.605 52.856 309.505 52.856C310.237 52.856 310.885 53.006 311.449 53.306C312.013 53.606 312.451 54.026 312.763 54.566V49.04H314.275V62H312.907L312.763 60.524C312.475 60.956 312.061 61.346 311.521 61.694C310.981 62.042 310.303 62.216 309.487 62.216ZM309.649 60.902C310.249 60.902 310.777 60.764 311.233 60.488C311.701 60.2 312.061 59.804 312.313 59.3C312.577 58.796 312.709 58.208 312.709 57.536C312.709 56.864 312.577 56.276 312.313 55.772C312.061 55.268 311.701 54.878 311.233 54.602C310.777 54.314 310.249 54.17 309.649 54.17C309.061 54.17 308.533 54.314 308.065 54.602C307.609 54.878 307.249 55.268 306.985 55.772C306.733 56.276 306.607 56.864 306.607 57.536C306.607 58.208 306.733 58.796 306.985 59.3C307.249 59.804 307.609 60.2 308.065 60.488C308.533 60.764 309.061 60.902 309.649 60.902ZM321.504 62V49.04H323.016V62H321.504ZM326.412 51.092C326.112 51.092 325.86 50.996 325.656 50.804C325.464 50.6 325.368 50.348 325.368 50.048C325.368 49.76 325.464 49.52 325.656 49.328C325.86 49.136 326.112 49.04 326.412 49.04C326.7 49.04 326.946 49.136 327.15 49.328C327.354 49.52 327.456 49.76 327.456 50.048C327.456 50.348 327.354 50.6 327.15 50.804C326.946 50.996 326.7 51.092 326.412 51.092ZM325.656 62V53.072H327.168V62H325.656ZM329.801 62V49.04H331.313V56.834L334.967 53.072H336.821L332.861 57.104L337.325 62H335.399L331.313 57.374V62H329.801ZM342.235 62.216C341.383 62.216 340.627 62.024 339.967 61.64C339.307 61.244 338.785 60.698 338.401 60.002C338.029 59.306 337.843 58.484 337.843 57.536C337.843 56.6 338.029 55.784 338.401 55.088C338.773 54.38 339.289 53.834 339.949 53.45C340.621 53.054 341.395 52.856 342.271 52.856C343.135 52.856 343.879 53.054 344.503 53.45C345.139 53.834 345.625 54.344 345.961 54.98C346.297 55.616 346.465 56.3 346.465 57.032C346.465 57.164 346.459 57.296 346.447 57.428C346.447 57.56 346.447 57.71 346.447 57.878H339.337C339.373 58.562 339.529 59.132 339.805 59.588C340.093 60.032 340.447 60.368 340.867 60.596C341.299 60.824 341.755 60.938 342.235 60.938C342.859 60.938 343.381 60.794 343.801 60.506C344.221 60.218 344.527 59.828 344.719 59.336H346.213C345.973 60.164 345.511 60.854 344.827 61.406C344.155 61.946 343.291 62.216 342.235 62.216ZM342.235 54.134C341.515 54.134 340.873 54.356 340.309 54.8C339.757 55.232 339.439 55.868 339.355 56.708H344.971C344.935 55.904 344.659 55.274 344.143 54.818C343.627 54.362 342.991 54.134 342.235 54.134ZM17.214 92.96L19.428 88.136H18.906L15.36 80.072H16.998L19.95 87.02L23.082 80.072H24.648L18.798 92.96H17.214ZM29.4682 89.216C28.6282 89.216 27.8722 89.024 27.2002 88.64C26.5282 88.256 25.9942 87.716 25.5982 87.02C25.2142 86.312 25.0222 85.484 25.0222 84.536C25.0222 83.588 25.2202 82.766 25.6162 82.07C26.0122 81.362 26.5462 80.816 27.2182 80.432C27.9022 80.048 28.6642 79.856 29.5042 79.856C30.3442 79.856 31.1002 80.048 31.7722 80.432C32.4442 80.816 32.9722 81.362 33.3562 82.07C33.7522 82.766 33.9502 83.588 33.9502 84.536C33.9502 85.484 33.7522 86.312 33.3562 87.02C32.9602 87.716 32.4202 88.256 31.7362 88.64C31.0642 89.024 30.3082 89.216 29.4682 89.216ZM29.4682 87.92C29.9842 87.92 30.4642 87.794 30.9082 87.542C31.3522 87.29 31.7122 86.912 31.9882 86.408C32.2642 85.904 32.4022 85.28 32.4022 84.536C32.4022 83.792 32.2642 83.168 31.9882 82.664C31.7242 82.16 31.3702 81.782 30.9262 81.53C30.4822 81.278 30.0082 81.152 29.5042 81.152C28.9882 81.152 28.5082 81.278 28.0642 81.53C27.6202 81.782 27.2602 82.16 26.9842 82.664C26.7082 83.168 26.5702 83.792 26.5702 84.536C26.5702 85.28 26.7082 85.904 26.9842 86.408C27.2602 86.912 27.6142 87.29 28.0462 87.542C28.4902 87.794 28.9642 87.92 29.4682 87.92ZM39.3105 89.216C38.2545 89.216 37.4145 88.898 36.7905 88.262C36.1665 87.614 35.8545 86.624 35.8545 85.292V80.072H37.3665V85.13C37.3665 86.99 38.1285 87.92 39.6525 87.92C40.4325 87.92 41.0745 87.644 41.5785 87.092C42.0945 86.528 42.3525 85.73 42.3525 84.698V80.072H43.8645V89H42.4965L42.3885 87.398C42.1125 87.962 41.6985 88.406 41.1465 88.73C40.6065 89.054 39.9945 89.216 39.3105 89.216ZM54.645 89C53.829 89 53.187 88.802 52.719 88.406C52.251 88.01 52.017 87.296 52.017 86.264V81.35H50.469V80.072H52.017L52.215 77.93H53.529V80.072H56.157V81.35H53.529V86.264C53.529 86.828 53.643 87.212 53.871 87.416C54.099 87.608 54.501 87.704 55.077 87.704H56.013V89H54.645ZM61.8998 89.216C61.0598 89.216 60.3038 89.024 59.6318 88.64C58.9598 88.256 58.4258 87.716 58.0298 87.02C57.6458 86.312 57.4538 85.484 57.4538 84.536C57.4538 83.588 57.6518 82.766 58.0478 82.07C58.4438 81.362 58.9778 80.816 59.6498 80.432C60.3338 80.048 61.0958 79.856 61.9358 79.856C62.7758 79.856 63.5318 80.048 64.2038 80.432C64.8758 80.816 65.4038 81.362 65.7878 82.07C66.1838 82.766 66.3818 83.588 66.3818 84.536C66.3818 85.484 66.1838 86.312 65.7878 87.02C65.3918 87.716 64.8518 88.256 64.1678 88.64C63.4958 89.024 62.7398 89.216 61.8998 89.216ZM61.8998 87.92C62.4158 87.92 62.8958 87.794 63.3398 87.542C63.7838 87.29 64.1438 86.912 64.4198 86.408C64.6958 85.904 64.8338 85.28 64.8338 84.536C64.8338 83.792 64.6958 83.168 64.4198 82.664C64.1558 82.16 63.8018 81.782 63.3578 81.53C62.9138 81.278 62.4398 81.152 61.9358 81.152C61.4198 81.152 60.9398 81.278 60.4958 81.53C60.0518 81.782 59.6918 82.16 59.4158 82.664C59.1398 83.168 59.0018 83.792 59.0018 84.536C59.0018 85.28 59.1398 85.904 59.4158 86.408C59.6918 86.912 60.0458 87.29 60.4778 87.542C60.9218 87.794 61.3958 87.92 61.8998 87.92ZM73.2479 89V76.04H74.7599V81.602C75.0599 81.05 75.4859 80.624 76.0379 80.324C76.5899 80.012 77.1899 79.856 77.8379 79.856C78.8699 79.856 79.6979 80.18 80.3219 80.828C80.9459 81.464 81.2579 82.448 81.2579 83.78V89H79.7639V83.942C79.7639 82.082 79.0139 81.152 77.5139 81.152C76.7339 81.152 76.0799 81.434 75.5519 81.998C75.0239 82.55 74.7599 83.342 74.7599 84.374V89H73.2479ZM87.5626 89.216C86.7106 89.216 85.9546 89.024 85.2946 88.64C84.6346 88.244 84.1126 87.698 83.7286 87.002C83.3566 86.306 83.1706 85.484 83.1706 84.536C83.1706 83.6 83.3566 82.784 83.7286 82.088C84.1006 81.38 84.6166 80.834 85.2766 80.45C85.9486 80.054 86.7226 79.856 87.5986 79.856C88.4626 79.856 89.2066 80.054 89.8306 80.45C90.4666 80.834 90.9526 81.344 91.2886 81.98C91.6246 82.616 91.7926 83.3 91.7926 84.032C91.7926 84.164 91.7866 84.296 91.7746 84.428C91.7746 84.56 91.7746 84.71 91.7746 84.878H84.6646C84.7006 85.562 84.8566 86.132 85.1326 86.588C85.4206 87.032 85.7746 87.368 86.1946 87.596C86.6266 87.824 87.0826 87.938 87.5626 87.938C88.1866 87.938 88.7086 87.794 89.1286 87.506C89.5486 87.218 89.8546 86.828 90.0466 86.336H91.5406C91.3006 87.164 90.8386 87.854 90.1546 88.406C89.4826 88.946 88.6186 89.216 87.5626 89.216ZM87.5626 81.134C86.8426 81.134 86.2006 81.356 85.6366 81.8C85.0846 82.232 84.7666 82.868 84.6826 83.708H90.2986C90.2626 82.904 89.9866 82.274 89.4706 81.818C88.9546 81.362 88.3186 81.134 87.5626 81.134ZM96.7667 89.216C96.0227 89.216 95.4047 89.09 94.9127 88.838C94.4207 88.586 94.0547 88.25 93.8147 87.83C93.5747 87.41 93.4547 86.954 93.4547 86.462C93.4547 85.55 93.8027 84.848 94.4987 84.356C95.1947 83.864 96.1427 83.618 97.3427 83.618H99.7547V83.51C99.7547 82.73 99.5507 82.142 99.1427 81.746C98.7347 81.338 98.1887 81.134 97.5047 81.134C96.9167 81.134 96.4067 81.284 95.9747 81.584C95.5547 81.872 95.2907 82.298 95.1827 82.862H93.6347C93.6947 82.214 93.9107 81.668 94.2827 81.224C94.6667 80.78 95.1407 80.444 95.7047 80.216C96.2687 79.976 96.8687 79.856 97.5047 79.856C98.7527 79.856 99.6887 80.192 100.313 80.864C100.949 81.524 101.267 82.406 101.267 83.51V89H99.9167L99.8267 87.398C99.5747 87.902 99.2027 88.334 98.7107 88.694C98.2307 89.042 97.5827 89.216 96.7667 89.216ZM97.0007 87.938C97.5767 87.938 98.0687 87.788 98.4767 87.488C98.8967 87.188 99.2147 86.798 99.4307 86.318C99.6467 85.838 99.7547 85.334 99.7547 84.806V84.788H97.4687C96.5807 84.788 95.9507 84.944 95.5787 85.256C95.2187 85.556 95.0387 85.934 95.0387 86.39C95.0387 86.858 95.2067 87.236 95.5427 87.524C95.8907 87.8 96.3767 87.938 97.0007 87.938ZM103.535 89V80.072H104.903L105.029 81.782C105.305 81.194 105.725 80.726 106.289 80.378C106.853 80.03 107.549 79.856 108.377 79.856V81.44H107.963C107.435 81.44 106.949 81.536 106.505 81.728C106.061 81.908 105.707 82.22 105.443 82.664C105.179 83.108 105.047 83.72 105.047 84.5V89H103.535Z" fill="black"/>
<path d="M323.66 94.144C323.132 94.144 322.68 94.04 322.304 93.832C321.928 93.624 321.628 93.348 321.404 93.004C321.188 92.652 321.056 92.264 321.008 91.84H321.944C322.024 92.296 322.216 92.648 322.52 92.896C322.824 93.144 323.208 93.268 323.672 93.268C324.312 93.268 324.844 92.972 325.268 92.38C325.692 91.78 325.92 90.848 325.952 89.584C325.76 89.96 325.452 90.288 325.028 90.568C324.612 90.84 324.108 90.976 323.516 90.976C323.044 90.976 322.596 90.864 322.172 90.64C321.748 90.416 321.404 90.104 321.14 89.704C320.876 89.296 320.744 88.82 320.744 88.276C320.744 87.804 320.86 87.352 321.092 86.92C321.332 86.488 321.668 86.136 322.1 85.864C322.532 85.592 323.048 85.456 323.648 85.456C324.256 85.456 324.768 85.572 325.184 85.804C325.6 86.028 325.932 86.332 326.18 86.716C326.436 87.1 326.62 87.532 326.732 88.012C326.852 88.484 326.912 88.968 326.912 89.464C326.912 90.392 326.784 91.208 326.528 91.912C326.272 92.608 325.9 93.156 325.412 93.556C324.932 93.948 324.348 94.144 323.66 94.144ZM323.72 90.1C324.096 90.1 324.432 90.016 324.728 89.848C325.024 89.672 325.26 89.44 325.436 89.152C325.612 88.864 325.7 88.552 325.7 88.216C325.7 87.856 325.612 87.536 325.436 87.256C325.26 86.968 325.024 86.744 324.728 86.584C324.432 86.424 324.096 86.344 323.72 86.344C323.344 86.344 323.008 86.424 322.712 86.584C322.416 86.744 322.184 86.968 322.016 87.256C321.848 87.536 321.764 87.86 321.764 88.228C321.764 88.796 321.948 89.252 322.316 89.596C322.692 89.932 323.16 90.1 323.72 90.1ZM328.735 94.06C328.535 94.06 328.367 93.996 328.231 93.868C328.103 93.732 328.039 93.568 328.039 93.376C328.039 93.184 328.103 93.024 328.231 92.896C328.367 92.76 328.535 92.692 328.735 92.692C328.927 92.692 329.087 92.76 329.215 92.896C329.351 93.024 329.419 93.184 329.419 93.376C329.419 93.568 329.351 93.732 329.215 93.868C329.087 93.996 328.927 94.06 328.735 94.06ZM328.735 89.272C328.535 89.272 328.367 89.208 328.231 89.08C328.103 88.944 328.039 88.78 328.039 88.588C328.039 88.396 328.103 88.236 328.231 88.108C328.367 87.972 328.535 87.904 328.735 87.904C328.927 87.904 329.087 87.972 329.215 88.108C329.351 88.236 329.419 88.396 329.419 88.588C329.419 88.78 329.351 88.944 329.215 89.08C329.087 89.208 328.927 89.272 328.735 89.272ZM334.113 94.144C333.369 94.144 332.725 93.964 332.181 93.604C331.645 93.236 331.233 92.728 330.945 92.08C330.657 91.424 330.513 90.664 330.513 89.8C330.513 88.936 330.657 88.18 330.945 87.532C331.233 86.876 331.645 86.368 332.181 86.008C332.725 85.64 333.369 85.456 334.113 85.456C334.857 85.456 335.497 85.64 336.033 86.008C336.569 86.368 336.981 86.876 337.269 87.532C337.557 88.18 337.701 88.936 337.701 89.8C337.701 90.664 337.557 91.424 337.269 92.08C336.981 92.728 336.569 93.236 336.033 93.604C335.497 93.964 334.857 94.144 334.113 94.144ZM334.113 93.256C334.601 93.256 335.037 93.12 335.421 92.848C335.813 92.568 336.117 92.172 336.333 91.66C336.557 91.14 336.669 90.52 336.669 89.8C336.669 89.08 336.557 88.464 336.333 87.952C336.117 87.44 335.813 87.048 335.421 86.776C335.037 86.496 334.601 86.356 334.113 86.356C333.617 86.356 333.177 86.496 332.793 86.776C332.409 87.048 332.105 87.44 331.881 87.952C331.657 88.464 331.545 89.08 331.545 89.8C331.545 90.52 331.657 91.14 331.881 91.66C332.105 92.172 332.409 92.568 332.793 92.848C333.177 93.12 333.617 93.256 334.113 93.256ZM342.014 94.144C341.438 94.144 340.938 94.04 340.514 93.832C340.09 93.624 339.75 93.34 339.494 92.98C339.246 92.612 339.094 92.196 339.038 91.732H340.022C340.118 92.196 340.342 92.572 340.694 92.86C341.046 93.14 341.49 93.28 342.026 93.28C342.426 93.28 342.77 93.188 343.058 93.004C343.346 92.812 343.566 92.556 343.718 92.236C343.878 91.916 343.958 91.56 343.958 91.168C343.958 90.544 343.782 90.04 343.43 89.656C343.078 89.272 342.622 89.08 342.062 89.08C341.598 89.08 341.202 89.184 340.874 89.392C340.546 89.6 340.306 89.872 340.154 90.208H339.194L339.914 85.6H344.318V86.476H340.694L340.202 89.032C340.394 88.8 340.658 88.608 340.994 88.456C341.338 88.304 341.73 88.228 342.17 88.228C342.722 88.228 343.202 88.356 343.61 88.612C344.026 88.868 344.35 89.216 344.582 89.656C344.814 90.096 344.93 90.596 344.93 91.156C344.93 91.692 344.814 92.188 344.582 92.644C344.358 93.1 344.026 93.464 343.586 93.736C343.154 94.008 342.63 94.144 342.014 94.144ZM346.445 96.64V88.048H347.357L347.453 89.032C347.645 88.744 347.917 88.484 348.269 88.252C348.629 88.02 349.085 87.904 349.637 87.904C350.229 87.904 350.745 88.04 351.185 88.312C351.625 88.584 351.965 88.956 352.205 89.428C352.453 89.9 352.577 90.436 352.577 91.036C352.577 91.636 352.453 92.172 352.205 92.644C351.965 93.108 351.621 93.476 351.173 93.748C350.733 94.012 350.217 94.144 349.625 94.144C349.137 94.144 348.701 94.044 348.317 93.844C347.941 93.644 347.653 93.364 347.453 93.004V96.64H346.445ZM349.517 93.268C349.917 93.268 350.269 93.176 350.573 92.992C350.877 92.8 351.117 92.536 351.293 92.2C351.469 91.864 351.557 91.472 351.557 91.024C351.557 90.576 351.469 90.184 351.293 89.848C351.117 89.512 350.877 89.252 350.573 89.068C350.269 88.876 349.917 88.78 349.517 88.78C349.117 88.78 348.765 88.876 348.461 89.068C348.157 89.252 347.917 89.512 347.741 89.848C347.565 90.184 347.477 90.576 347.477 91.024C347.477 91.472 347.565 91.864 347.741 92.2C347.917 92.536 348.157 92.8 348.461 92.992C348.765 93.176 349.117 93.268 349.517 93.268ZM353.98 94V88.048H354.892L354.964 88.912C355.156 88.592 355.412 88.344 355.732 88.168C356.052 87.992 356.412 87.904 356.812 87.904C357.284 87.904 357.688 88 358.024 88.192C358.368 88.384 358.632 88.676 358.816 89.068C359.024 88.708 359.308 88.424 359.668 88.216C360.036 88.008 360.432 87.904 360.856 87.904C361.568 87.904 362.136 88.12 362.56 88.552C362.984 88.976 363.196 89.632 363.196 90.52V94H362.2V90.628C362.2 90.012 362.076 89.548 361.828 89.236C361.58 88.924 361.224 88.768 360.76 88.768C360.28 88.768 359.88 88.956 359.56 89.332C359.248 89.7 359.092 90.228 359.092 90.916V94H358.084V90.628C358.084 90.012 357.96 89.548 357.712 89.236C357.464 88.924 357.108 88.768 356.644 88.768C356.172 88.768 355.776 88.956 355.456 89.332C355.144 89.7 354.988 90.228 354.988 90.916V94H353.98Z" fill="black"/>
</svg>
